<?xml version="1.0" encoding="UTF-8" standalone="no"?>
<!-- Generator: Gravit.io -->
<svg xmlns="http://www.w3.org/2000/svg" xmlns:xlink="http://www.w3.org/1999/xlink" style="isolation:isolate" viewBox="361.22 133.279 700.78 210.721" width="700.78pt" height="210.721pt"><g><path d=" M 551.41 257.873 C 542.338 257.873 535.176 261.98 531.547 268.474 C 528.491 261.407 521.997 257.873 513.689 257.873 C 505.285 257.873 498.791 261.407 495.257 267.423 L 495.257 258.255 L 488.763 258.255 L 488.763 308.488 L 495.544 308.488 L 495.544 282.13 C 495.544 270.67 502.133 263.985 512.352 263.985 C 521.519 263.985 526.867 269.429 526.867 280.029 L 526.867 308.488 L 533.648 308.488 L 533.648 282.13 C 533.648 270.67 540.142 263.985 550.455 263.985 C 559.528 263.985 564.876 269.429 564.876 280.029 L 564.876 308.488 L 571.656 308.488 L 571.656 279.361 C 571.656 264.94 563.634 257.873 551.41 257.873 Z  M 611.872 308.965 C 626.578 308.965 637.37 298.269 637.37 283.371 C 637.37 268.474 626.578 257.873 611.872 257.873 C 597.165 257.873 586.278 268.474 586.278 283.371 C 586.278 298.269 597.165 308.965 611.872 308.965 Z  M 611.872 302.949 C 601.176 302.949 593.154 295.118 593.154 283.371 C 593.154 271.625 601.176 263.794 611.872 263.794 C 622.568 263.794 630.494 271.625 630.494 283.371 C 630.494 295.118 622.568 302.949 611.872 302.949 Z  M 672.81 308.965 C 687.517 308.965 698.309 298.269 698.309 283.371 C 698.309 268.474 687.517 257.873 672.81 257.873 C 658.104 257.873 647.217 268.474 647.217 283.371 C 647.217 298.269 658.104 308.965 672.81 308.965 Z  M 672.81 302.949 C 662.115 302.949 654.093 295.118 654.093 283.371 C 654.093 271.625 662.115 263.794 672.81 263.794 C 683.506 263.794 691.433 271.625 691.433 283.371 C 691.433 295.118 683.506 302.949 672.81 302.949 Z  M 738.811 257.873 C 730.12 257.873 723.34 261.407 719.711 267.519 L 719.711 258.255 L 713.217 258.255 L 713.217 308.488 L 719.997 308.488 L 719.997 282.13 C 719.997 270.67 726.778 263.985 737.569 263.985 C 747.119 263.985 752.658 269.429 752.658 280.029 L 752.658 308.488 L 759.438 308.488 L 759.438 279.361 C 759.438 264.94 751.034 257.873 738.811 257.873 Z " fill="rgb(141,82,251)"/><path d=" M 792.396 308.965 C 805.479 308.965 813.119 303.331 813.119 294.64 C 813.119 275.35 780.554 285.568 780.554 272.007 C 780.554 267.232 784.565 263.699 793.637 263.699 C 798.794 263.699 804.047 264.94 808.44 267.996 L 811.4 262.553 C 807.198 259.688 800.131 257.873 793.637 257.873 C 780.841 257.873 773.774 263.985 773.774 272.198 C 773.774 292.062 806.339 281.748 806.339 294.831 C 806.339 299.797 802.423 303.044 792.873 303.044 C 785.806 303.044 779.026 300.561 775.015 297.41 L 771.959 302.758 C 776.066 306.291 784.088 308.965 792.396 308.965 Z  M 861.261 258.255 L 842.352 300.943 L 823.444 258.255 L 816.377 258.255 L 838.819 308.392 L 836.622 313.263 C 833.757 319.565 830.701 321.666 826.213 321.666 C 822.584 321.666 819.528 320.329 817.045 317.846 L 813.894 322.908 C 816.95 325.964 821.438 327.492 826.117 327.492 C 833.28 327.492 838.628 324.34 842.83 314.504 L 867.946 258.255 L 861.261 258.255 Z  M 885.051 268.092 L 885.051 258.255 L 878.557 258.255 L 878.557 308.488 L 885.337 308.488 L 885.337 282.894 C 885.337 271.052 891.736 264.367 902.24 264.367 C 902.718 264.367 903.291 264.463 903.864 264.463 L 903.864 257.873 C 894.601 257.873 888.202 261.407 885.051 268.092 Z  M 956.399 258.255 L 956.399 284.613 C 956.399 296.073 949.809 302.853 939.305 302.853 C 929.755 302.853 924.216 297.41 924.216 286.714 L 924.216 258.255 L 917.435 258.255 L 917.435 287.382 C 917.435 301.803 925.839 308.965 938.636 308.965 C 946.658 308.965 953.152 305.432 956.685 299.32 L 956.685 308.488 L 963.179 308.488 L 963.179 258.255 L 956.399 258.255 Z  M 1009.125 257.873 C 1000.816 257.873 993.845 261.502 989.738 268.187 L 989.738 258.255 L 983.245 258.255 L 983.245 327.014 L 990.025 327.014 L 990.025 299.033 C 994.227 305.527 1001.103 308.965 1009.125 308.965 C 1023.449 308.965 1034.145 298.651 1034.145 283.371 C 1034.145 268.187 1023.449 257.873 1009.125 257.873 Z  M 1008.647 302.949 C 997.951 302.949 989.929 295.118 989.929 283.371 C 989.929 271.721 997.951 263.794 1008.647 263.794 C 1019.247 263.794 1027.365 271.721 1027.365 283.371 C 1027.365 295.118 1019.247 302.949 1008.647 302.949 Z " fill="rgb(65,21,149)"/><g><path d=" M 410.553 247.687 C 411.733 277.366 431.065 302.376 457.747 311.932 C 455.413 312.115 453.054 312.205 450.68 312.205 C 422.001 312.205 396.484 298.72 380.11 277.731 C 380.11 277.718 380.11 277.718 380.11 277.718 C 378.658 267.59 380.668 250.201 410.553 247.687 Z " fill="rgb(141,82,251)"/><path d=" M 479.309 137.948 C 479.309 137.948 479.309 137.948 479.322 137.948 C 507.598 147.516 529.524 170.79 537.186 199.871 C 524.117 183.767 504.164 173.474 481.798 173.474 C 474.266 173.474 466.991 174.641 460.172 176.82 C 450.875 149.851 462.96 141.966 479.309 137.948 Z " fill="rgb(141,82,251)"/><path d=" M 450.68 133.279 C 460.689 133.279 470.323 134.926 479.309 137.948 C 462.96 141.966 450.875 149.851 460.172 176.818 C 431.363 185.971 410.488 212.926 410.488 244.781 C 410.488 245.753 410.513 246.725 410.553 247.685 C 380.668 250.199 378.658 267.587 380.11 277.713 C 368.26 262.544 361.22 243.471 361.22 222.74 C 361.22 173.329 401.269 133.279 450.68 133.279 Z  M 460.172 176.818 C 460.794 178.632 461.521 180.551 462.351 182.548 C 477.91 220.148 470.13 247.375 418.268 247.375 C 415.506 247.375 412.94 247.48 410.553 247.687 C 410.513 246.728 410.488 245.756 410.488 244.783 C 410.488 212.926 431.363 185.971 460.172 176.818 Z " fill-rule="evenodd" fill="rgb(65,21,149)"/></g></g></svg>