<?xml version="1.0" encoding="UTF-8" standalone="no"?>
<!-- Generator: Gravit.io -->
<svg xmlns="http://www.w3.org/2000/svg" xmlns:xlink="http://www.w3.org/1999/xlink" style="isolation:isolate" viewBox="361.22 133.279 175.966 178.925" width="175.966pt" height="178.925pt"><g><path d=" M 410.553 247.687 C 411.733 277.366 431.065 302.376 457.747 311.932 C 455.413 312.115 453.054 312.205 450.68 312.205 C 422.001 312.205 396.484 298.72 380.11 277.731 C 380.11 277.718 380.11 277.718 380.11 277.718 C 378.658 267.59 380.668 250.201 410.553 247.687 Z " fill="rgb(141,82,251)"/><path d=" M 479.309 137.948 C 479.309 137.948 479.309 137.948 479.322 137.948 C 507.598 147.516 529.524 170.79 537.186 199.871 C 524.117 183.767 504.164 173.474 481.798 173.474 C 474.266 173.474 466.991 174.641 460.172 176.82 C 450.875 149.851 462.96 141.966 479.309 137.948 Z " fill="rgb(141,82,251)"/><path d=" M 450.68 133.279 C 460.689 133.279 470.323 134.926 479.309 137.948 C 462.96 141.966 450.875 149.851 460.172 176.818 C 431.363 185.971 410.488 212.926 410.488 244.781 C 410.488 245.753 410.513 246.725 410.553 247.685 C 380.668 250.199 378.658 267.587 380.11 277.713 C 368.26 262.544 361.22 243.471 361.22 222.74 C 361.22 173.329 401.269 133.279 450.68 133.279 Z  M 460.172 176.818 C 460.794 178.632 461.521 180.551 462.351 182.548 C 477.91 220.148 470.13 247.375 418.268 247.375 C 415.506 247.375 412.94 247.48 410.553 247.687 C 410.513 246.728 410.488 245.756 410.488 244.783 C 410.488 212.926 431.363 185.971 460.172 176.818 Z " fill-rule="evenodd" fill="rgb(65,21,149)"/></g></svg>